<?xml version="1.0" encoding="UTF-8"?>
<svg id="_圖層_1" data-name="圖層 1" xmlns="http://www.w3.org/2000/svg" viewBox="0 0 152.81 200">
  <defs>
    <style>
      .cls-1 {
        fill: #090b0c;
      }

      .cls-2 {
        fill: #e3322e;
      }

      .cls-2, .cls-3 {
        stroke: #f1b423;
        stroke-miterlimit: 10;
      }

      .cls-3, .cls-4 {
        fill: #f1b423;
      }

      .cls-5 {
        fill: #cb2423;
      }

      .cls-6 {
        fill: #7a7d73;
      }

      .cls-7 {
        fill: #b5c1da;
      }

      .cls-8 {
        fill: #3c3d3c;
      }

      .cls-9 {
        fill: #64665e;
      }

      .cls-10 {
        fill: #a27217;
      }
    </style>
  </defs>
  <path class="cls-6" d="m20.63,194.64c-.57-.53-.65-1.28-.88-1.97.28-.24.29-.57.19-.87-.62-1.8-.73-3.67-.95-5.55-.52-4.52.2-8.84,1.61-13.11.42-1.28,1.1-1.63,2.4-1.62,16.36.04,32.72.03,49.08.03q3.11,0,2.35,3c-1.4,5.4-1.52,10.84-.44,16.3-.25.16-.29.41-.3.68,0,.49-.04,1.03-.66,1.08-.75.07-.55-.63-.67-1.02-.21-.7-.48-1.42-.5-2.13-.02-1.12-.6-1.23-1.52-1.22-3.42.04-6.84.02-10.26.02-12.57,0-25.14.01-37.71-.02-1.26,0-2.06.03-1.54,1.69.34,1.08.29,2.27.42,3.42h.01c-.91.08-.51.82-.65,1.29Zm51.81-19.3c.93-1.92.93-1.92-1.22-1.92-15.69,0-31.37.01-47.06-.03-1.51,0-2.19.43-1.93,1.97.37.42.87.29,1.33.29,16.02,0,32.05,0,48.07,0,.27,0,.73.29.81-.3Zm-51.09,12.39c0,.05,0,.1,0,.15h49.83c0-.05,0-.1,0-.15H21.34Zm50.98-14.66c.02-.05.04-.11.07-.16H23.58c0,.05,0,.11,0,.16h48.74Z"/>
  <path class="cls-4" d="m78.09,121.54s0-.1,0-.1c-.75-1.09-2.24-.97-2.86.39-1.9,4.18-2.62,8.58-1.93,13.15.05.33-.31,1.02.46,1.12.43,1.26.82,2.53.91,3.87-.04-.03-.09-.06-.13-.08-.82-.31.1-2.64-1.9-1.62-.17.09-.42-.38-.48-.7-.14-.75-.47-1.48-.35-2.27-.42-.61-1.05-.36-1.6-.36-13.67-.01-27.34-.02-41,0-.54,0-1.17-.24-1.61.34-.05.84.59,1.65.18,2.53-.74-.37-.27-1.27-.88-1.82-.33.61-.06,1.11-.02,1.64.05.66.77,1.3.12,2-.48-1.51-1.13-2.98-1.02-4.62-.12-4.3.11-8.56,1.28-12.72,0,0-.03,0-.03,0,.47-.27.47-.58.09-.93-.04-.08-.06-.17-.05-.27-.06-1.35.95-.98,1.66-.99,19.75-.01,39.5-.01,59.26-.01.21,0,.42,0,.63,0,.9-.04,1.05.3.78,1.15-.48,1.49-.89,3.01-1.19,4.55-.64,3.35-.94,6.72.09,10.06.21.63.42,1.26.63,1.89-1.03,1.19-1.51.8-2.02-.51-.23-.59-.13-1.18-.39-1.71.22-.91-.53-.55-.84-.55-2-.04-4-.05-5.99,0-.7.01-1.48-.28-2.1.33-.28.12-1.03-.84-.85.36.08.51.26,1.02.28,1.53.03.94,1.09,1.75.33,2.77-.57-1.74-1.17-3.48-1.27-5.33.47-.42.28-.98.27-1.48-.06-3.47.22-6.88,1.42-10.17.17-.46.17-.92.13-1.39Zm9.15.47s.06-.09.06-.14c0-.04-.02-.12-.04-.12-1.99-.16-3.98-.16-5.97,0l.02.27c-.62.59-1.97.97-.64,2.15-.1.08-.21.15-.31.23.03.03.06.1.09.1,1.65,0,3.3.04,4.95,0,.41-.01.96.34,1.23-.31.15-.73,1.3-1.18.61-2.15Zm-57.76,2.15c.45.55,1.07.32,1.62.32,13.33.01,26.65.01,39.98,0,.55,0,1.16.21,1.64-.28.7-.37.98-1.09.76-1.7-.18-.51-.94-.24-1.44-.25-13.54-.01-27.07,0-40.61-.04-1.47,0-2.22.37-1.96,1.95Zm.74-2.43c-.02.05-.03.1-.05.15h43.18c0-.05,0-.1,0-.15H30.22Z"/>
  <path class="cls-9" d="m21.27,193.35c-.13-1.14-.08-2.34-.42-3.42-.52-1.66.28-1.69,1.54-1.69,12.57.03,25.14.02,37.71.02,3.42,0,6.84.02,10.26-.02.92-.01,1.5.1,1.52,1.22.02.71.29,1.43.5,2.13.12.39-.08,1.09.67,1.02.62-.06.65-.59.66-1.08,0-.27.04-.52.3-.68,0,.67.1,1.31.62,1.8q.99,2.32-1.33,2.77c-.42.08-.82.2-1.17-.16-.51-.58-1.18-.31-1.78-.31-15.81-.02-31.61-.01-47.42-.01-.78,0-1.58.11-2.3-.33,0,0,0,.03,0,.03.13-.48-.26-1.22.65-1.31.04.02.08.05.11.07-.04-.02-.08-.04-.12-.06Z"/>
  <path class="cls-6" d="m97.37,194.92c.03.1.03.21-.01.31-.12.04-.24.08-.36.12-5.81,0-11.62-.21-17.42.12-.75.04-.84-.4-1.06-.86-.72-1.51-1-3.14-1.3-4.76.49-.55.29-1.21.21-1.81-.69-5.29-.25-10.45,1.57-15.48.22-.62.47-1.01,1.18-1.01,5.31.01,10.63.01,15.94,0,.7,0,.92.17.69.93-.8,2.6-1.58,5.22-1.78,7.95-.21,2.84-.63,5.72.49,8.5,0,0-.02-.03-.02-.03.12.43-.4,1,.31,1.29.46.77.57,1.64.68,2.5-.04.04-.07.09-.11.11-.04.02-.13.04-.14.02-.29-.43-.26-1.53-1.21-.47-.22.25-.7-.06-.8-.49-.17-.71-.58-1.47-.44-2.12.33-1.47-.5-1.47-1.48-1.47-3.78,0-7.56,0-11.35,0-2.05,0-2.14.14-1.79,2.15.16.91.54,1.94.27,2.73-.6,1.76-.7,1.8,1.23,1.8,5.57,0,11.13,0,16.7,0Zm-17.04-19.62c.17.11.34.31.51.31,4.47.02,8.94.03,13.41.03.34,0,.66-.11.35-.56.61-1.38.02-1.7-1.31-1.68-3.67.06-7.35.08-11.02,0-1.47-.03-2.03.52-1.93,1.91Zm13.23,12.59s0-.1,0-.15h-14.13s0,.1,0,.15h14.13Zm-11.94-15s0,.08,0,.12h12.53s0-.08,0-.12h-12.53Z"/>
  <path class="cls-10" d="m71.8,135.29c-.12.79.21,1.52.35,2.27.06.32.31.79.48.7,2-1.01,1.09,1.32,1.9,1.62.05.02.09.05.13.08,0,0,0-.02,0-.02,0,.41.02.81.03,1.22-3.1.64-6.21-.05-9.34.16-3.34.22-6.73.11-10.09.11-4.15,0-8.31-.18-12.47-.19-3,0-6.01-.14-9,.05-1.62.1-3.18.16-4.8.02-1.3-.11-1.74-.67-2-1.72.65-.7-.07-1.34-.12-2-.04-.53-.31-1.03.02-1.64.6.55.14,1.45.88,1.82.41-.88-.23-1.68-.18-2.53,4.41,0,8.81-.02,13.22-.02,10.33,0,20.66.03,30.99.04Z"/>
  <path class="cls-8" d="m74.79,147.25c-8.56,0-16.92,0-25.28,0-7.21,0-14.41.03-21.62-.03-1.25,0-1.85.37-2.26,1.59-1.89,5.57-1.59,11.02.55,16.44.14.36.77.84.11,1.19-.52.28-1.01-.1-1.34-.56-1.75-2.47-2.45-5.32-2.71-8.26-.32-3.56.41-6.99,1.68-10.31.44-1.15,1.05-1.69,2.43-1.69,16.51.06,33.03.04,49.54.02,1.28,0,1.71.03,1.18,1.61-2.01,5.97-2.28,12,.11,17.98.18.46.93,1.09.27,1.47-.69.4-1.22-.26-1.59-.9-1.33-2.3-2.27-4.76-2.46-7.4-.24-3.41-.08-6.81,1.14-10.07.11-.29.13-.61.23-1.07Z"/>
  <path class="cls-9" d="m97.37,194.92c-5.57,0-11.13.01-16.7,0-1.93,0-1.83-.04-1.23-1.8.27-.79-.11-1.82-.27-2.73-.35-2.01-.25-2.15,1.79-2.15,3.78,0,7.56,0,11.35,0,.98,0,1.81,0,1.48,1.47-.14.64.26,1.41.44,2.12.11.43.58.74.8.49.95-1.06.92.04,1.21.47.01.02.1,0,.14-.02.04-.02.08-.07.11-.11.29.75.59,1.49.88,2.24Z"/>
  <path class="cls-8" d="m90.7,166.66c-.95.07-1.47-.34-1.89-1-1.45-2.31-2.32-4.82-2.46-7.54-.17-3.31-.05-6.61,1.16-9.76.35-.91.08-1.12-.87-1.13-4.44-.05-4.74.11-5.59,4.7-.9,4.86-.47,9.59,1.79,14.07.11.22.39.46.12.67-.17.13-.5.15-.74.1-.94-.17-1.42-.93-1.76-1.67-2.79-6.13-2.55-12.25.12-18.36.34-.77.78-1.12,1.66-1.09,2.36.06,4.73.02,7.1.02.68,0,1.32-.05.91,1.01-2.58,6.66-2.45,13.29.45,19.99Z"/>
  <path class="cls-8" d="m21.45,166.77c-1.25,0-1.65-.8-2.05-1.52-1.39-2.45-2.12-5.06-2.31-7.92-.21-3.13.11-6.15,1.06-9.1.27-.84.02-1.02-.75-.99-1.05.03-2.12.12-3.15-.02-1.61-.22-2.33.43-2.78,1.95-1.69,5.67-1.81,11.23.83,16.67.14.29.64.59.11.9-.32.19-.72.04-1.03-.2-.87-.68-1.27-1.68-1.65-2.64-2.29-5.77-1.8-11.49.43-17.16.27-.7.64-1.11,1.49-1.1,2.89.05,5.79.03,8.68.01.68,0,.99.14.65.9-2.92,6.54-2.33,13.05.26,19.53.07.18.12.38.22.69Z"/>
  <path class="cls-10" d="m23.17,136.48c.05.09.1.18.14.28.61,1.38,1.72,3.14,1.17,4.19-.5.95-2.72.46-4.1.46-2.14-.01-4.32.03-6.55-.21.37-.75.73-1.48,1.09-2.21.04.04.07.09.11.11.04.02.14.02.14,0,.36-1.17,1.9-1.66,1.8-3.12-.02-.28.22-.65.57-.67.92-.05.89-.66.89-1.33-.01-2.88,0-5.77-.01-8.65,0-.51.1-1.02-.62-1.26-.56-.19-.38-.79-.33-1.24.06-.56.52-.59.94-.59,1,0,1.99,0,2.99,0,.49,0,.81.17.84.7-.02.2-.04.4-.06.6h.01c-.31.1-.3.38-.33.63l.02-.02c-.11.11-.22.22-.33.33h0c-.57.43-.58,1.07-.58,1.7,0,2.47,0,4.94,0,7.41-.04,1.67.21,3.25,1.32,4.7.49-.86-.11-1.74.5-2.4.02.25.05.5.35.58Z"/>
  <path class="cls-4" d="m22.82,135.9c-.61.66,0,1.54-.5,2.4-1.11-1.45-1.36-3.03-1.32-4.7.62-3.02-.07-6.11.57-9.13,0,0,0,.01,0,.01.11-.11.22-.22.33-.33,0,0-.02.02-.02.02.28-.13.33-.38.33-.65,0,0-.01.01-.01.01.3-.17.39-.36.06-.6-.04-.53-.36-.71-.84-.7-1,0-1.99,0-2.99,0-.43,0-.88.03-.94.59-.05.45-.24,1.05.33,1.24.72.24.62.75.62,1.26,0,2.88,0,5.77.01,8.65,0,.66.03,1.28-.89,1.33-.35.02-.59.39-.57.67.1,1.46-1.44,1.94-1.8,3.12,0,.01-.1.01-.14,0-.04-.02-.08-.07-.11-.11.42-1.8.85-3.59,1.27-5.39.02.16.02.32.07.47.02.07.12.11.26.23,0-2.15.18-4.25-.06-6.31-.2-1.74-.13-3.67-1.56-5.07,0,0,.02.02.02.02.02-.37.11-.76-.32-.98v.02c.03-.37.11-.76-.33-.96,0,0,.02.02.02.02-.03-.74.33-.99,1.05-.98,2.87.03,5.75.03,8.62,0,.87,0,1.08.18.74,1.08-.5,1.3-1.33,2.51-1.21,4,0,0,0-.01,0-.01-.25.15-.29.4-.36.66-.9,3.35-.76,6.73-.34,10.12Z"/>
  <path class="cls-10" d="m77.53,139.92c.76-1.02-.3-1.84-.33-2.77-.02-.51-.2-1.02-.28-1.53-.18-1.2.57-.23.85-.36,1.11,0,2.21-.06,3.32,0,1.87.11,3.76-.33,5.61.23.26.53.16,1.13.39,1.71.51,1.32.99,1.71,2.02.51.14.93.44,1.8.99,2.58.38.55.35.95-.5.95-3.55-.02-7.1-.03-10.66,0-.98,0-1.23-.59-1.42-1.34Z"/>
  <path class="cls-8" d="m94.87,145.65c1.09-.06,1,.48.66,1.18-1.28,2.7-1.76,5.61-1.88,8.53-.14,3.42.57,6.76,2,9.92.19.43.82.99.22,1.38-.66.42-1.01-.31-1.31-.77-3.34-5.07-3.59-10.53-2.02-16.21.31-1.11.77-2.17,1.16-3.25.2-.57.57-.87,1.17-.77Z"/>
  <path class="cls-9" d="m16.51,192.68c.1.76.75,1.33.72,2.14-2.9.04-5.8.06-8.7.11-.73.01-.87-.39-.85-.98,0,0,0,.02,0,.02.63-.49.64-1.28.94-1.94.22-.56.43-1.12.65-1.68.11.47-.18,1.01.38,1.65.21-1,.46-1.83.54-2.67.06-.63.13-.96.88-.78.44.11.94.07,1.4.02,1.04-.11,1.47.28,1.59,1.37.1.91.55,1.78.88,2.65.37,1,.84.62,1.31.06l.13.03.14-.02Z"/>
  <path class="cls-6" d="m74.61,192.66c-.53-.49-.61-1.13-.62-1.8-1.08-5.47-.96-10.9.44-16.3q.78-2.99-2.35-3c-16.36,0-32.72.01-49.08-.03-1.3,0-1.97.34-2.4,1.62-1.41,4.27-2.13,8.59-1.61,13.11.22,1.87.33,3.75.95,5.55.1.3.09.63-.19.87-2.25-7.3-1.88-14.45,1.2-21.45,5.41.01,10.81.03,16.22.03,11.76-.01,23.51-.03,35.27-.05.58,0,1.15.02,1.73.03.52,0,1.04,0,1.58,0,.26,2.32-1.13,4.15-1.49,6.25-.85,4.85-.75,9.62.38,14.4.06.25,0,.52-.01.78Z"/>
  <path class="cls-3" d="m23.51,125.14c-.12-1.49.71-2.7,1.21-4,.34-.89.13-1.09-.74-1.08-2.87.03-5.75.03-8.62,0-.73,0-1.08.24-1.05.98-.57-.2-.62-.71-.77-1.31.81,0,1.53,0,2.26,0,24.39,0,48.78,0,73.16,0,1.84,0,1.68-.05,1.14,1.63-1.3,4.03-2.38,8.11-1.6,12.43.12.66,0,1.36,0,2.04-1.03-3.34-.73-6.71-.09-10.06.3-1.54.71-3.06,1.19-4.55.27-.85.13-1.2-.78-1.15-.21.01-.42,0-.63,0-19.75,0-39.5,0-59.26.01-.7,0-1.72-.36-1.66.99-1.27-.74-2.07-.51-2.55,1-.33,1.04-.45,2.19-1.21,3.08Z"/>
  <path class="cls-4" d="m93.01,134.21c.43,2.06.65,4.18,1.44,6.16.12.29.21.66-.25.74-.59.1-1.11.06-1.39-.65-.59-1.5-1.12-3.01-1.39-4.61.42-.38.34-.91.25-1.33-.44-1.98-.18-3.95,0-5.93.21-2.31.74-4.54,1.53-6.71.17-.47.26-1.16,1.21-1.08-.11.42-.2.75-.29,1.09-.98,4-2.21,7.98-1.48,12.19.04.22.02.22.37.14Z"/>
  <path class="cls-6" d="m101.17,190.18c.44,1.42.88,2.84,1.32,4.26.09.29.5.59-.14.84-.44.17-.72.07-.9-.26-.42-.77-.77-1.57-1.15-2.36.5-.6-.05-1.1-.19-1.61-1.48-5.69-1.26-11.3.73-16.84.15-.41.3-.79.89-.85.03.47.05.93.08,1.39,0,0,.02-.03.02-.03-.49.32-.51.86-.69,1.34-.6,1.64-.69,3.37-.82,5.05-.22,2.61-.37,5.27.57,7.82,0,0-.02-.04-.02-.03.15.42-.36.99.3,1.29Z"/>
  <path class="cls-6" d="m95.52,188.92c-1.12-2.78-.7-5.65-.49-8.5.2-2.72.98-5.35,1.78-7.95.23-.76,0-.93-.69-.93-5.31,0-10.63,0-15.94,0-.72,0-.96.39-1.18,1.01-1.82,5.03-2.26,10.19-1.57,15.48.08.6.28,1.25-.21,1.81-1.1-4.81-.71-9.58.37-14.34.34-1.49.5-3.03,1.46-4.3,6.2.02,12.4.03,18.59.05-1.09,3.59-1.93,7.22-2.43,10.94-.3,2.27.4,4.48.31,6.73Z"/>
  <path class="cls-4" d="m98.03,135.53c.32,1.37.66,2.73.95,4.1.06.31.65.81-.16.96-.41.08-.92.37-1.12-.37-.09-.34-.35-.63-.54-.94.29-.32.24-.69.1-1.03-1.16-2.91-.9-5.96-.79-8.97.09-2.45.74-4.82,1.62-7.12.14-.36.25-.88.82-.77.5.1.3.59.39.91,0,0,0-.02,0-.02-.16.2-.37.38-.46.6-1.45,3.32-1.88,9.61-.91,13.3.04-.26.07-.46.1-.67Z"/>
  <path class="cls-6" d="m20.62,194.61c.72.44,1.52.33,2.3.33,15.81,0,31.61,0,47.42.01.59,0,1.27-.27,1.78.31-15.78.02-31.56.03-47.34.05-1,0-1.99.09-2.99.12-.58.02-1.23.08-1.17-.83Z"/>
  <path class="cls-4" d="m93.01,134.21c-.35.08-.33.08-.37-.14-.73-4.21.5-8.19,1.48-12.19.08-.34.18-.67.29-1.09-.94-.07-1.04.62-1.21,1.08-.78,2.17-1.32,4.4-1.53,6.71-.18,1.98-.44,3.95,0,5.93.09.42.17.95-.25,1.33-.73-4.22-.57-8.39.77-12.48.31-.93.66-1.86.82-2.82.17-1.03.85-.76,1.41-.68.83.12.71.63.49,1.28-1.43,4.24-2.26,8.57-1.91,13.07Z"/>
  <path class="cls-9" d="m72.43,171.2c-11.76.02-23.51.04-35.27.05-5.41,0-10.81-.02-16.22-.03.42-.47.98-.27,1.48-.27,16.11,0,32.22,0,48.33,0,.56,0,1.16-.18,1.67.23Z"/>
  <path class="cls-8" d="m26.25,150.14h44.02v.18H26.25v-.18Z"/>
  <path class="cls-6" d="m101.82,174.74c-.03-.46-.05-.92-.08-1.39-.59.07-.74.45-.89.85-1.99,5.54-2.21,11.15-.73,16.84.13.51.68,1.02.19,1.61-1.92-4.4-2.04-8.96-1.23-13.61.29-1.65.67-3.27,1.24-4.84.29-.81.6-1.84,1.66-1.33,1.01.49,0,1.23-.16,1.86Z"/>
  <path class="cls-4" d="m99.3,122.31c-.09-.32.11-.81-.39-.91-.57-.11-.68.41-.82.77-.89,2.29-1.54,4.67-1.62,7.12-.11,3.01-.36,6.06.79,8.97.14.34.19.71-.1,1.03-2.37-6.03-1.41-11.92.66-17.79.39-1.1,1.33-1.02,1.87-.67.66.42-.14,1-.38,1.5Z"/>
  <path class="cls-6" d="m16.51,192.68l-.14.02s-.13-.03-.13-.03c-1.31-4.48-1.64-9.04-.9-13.63.34-2.12.49-4.37,1.83-6.23l.1.09c-1.12,3.27-1.68,6.66-1.93,10.08-.21,2.9.44,5.78,1.07,8.62.08.35.07.72.1,1.08Z"/>
  <path class="cls-3" d="m73.76,136.09c-.77-.1-.41-.78-.46-1.12-.69-4.57.03-8.97,1.93-13.15.62-1.35,2.11-1.47,2.86-.39-1.54-.43-2.39.15-2.93,1.67-1.5,4.23-2.15,8.53-1.4,12.99Z"/>
  <path class="cls-6" d="m9.26,190.36c-.22.56-.43,1.12-.65,1.68-.09-.09-.18-.18-.27-.27,1.22-5.23,1.37-10.47.22-15.73l.08-.07c.15.21.38.39.44.62.76,3.11,1.03,6.25.68,9.45-.16,1.44-.6,2.85-.5,4.32Z"/>
  <path class="cls-4" d="m98.03,135.53c-.03.2-.06.4-.1.67-.97-3.69-.54-9.98.91-13.3.1-.23.31-.4.46-.6-.53,3.05-1.55,6.02-1.34,9.18.09,1.35.04,2.71.06,4.06Z"/>
  <path class="cls-6" d="m100.89,188.92c-.94-2.55-.78-5.21-.57-7.82.14-1.68.22-3.42.82-5.05.18-.48.2-1.02.69-1.34-.38,2.41-.72,4.82-1.17,7.22-.15.79-.34,1.67-.07,2.31.66,1.57.19,3.13.29,4.68Z"/>
  <path class="cls-3" d="m78.09,121.54c.04.47.04.93-.13,1.39-1.2,3.29-1.48,6.7-1.42,10.17,0,.5.19,1.06-.27,1.48-.83-4.06.09-7.94,1.23-11.79.13-.45.22-.92.6-1.25Z"/>
  <path class="cls-9" d="m97.64,171.25c-6.2-.02-12.4-.03-18.59-.05.29-.32.67-.24,1.03-.24,5.52,0,11.04,0,16.56.02.35,0,.75-.12,1,.27Z"/>
  <path class="cls-3" d="m27.25,122.26c-1.17,4.17-1.39,8.43-1.28,12.72-.89-2.68-.67-5.39-.12-8.08.32-1.58.29-3.29,1.4-4.64Z"/>
  <path class="cls-9" d="m17.84,171.55c-.19.45-.38.9-.57,1.36,0,0-.1-.09-.1-.09.11-.92-.22-1.32-1.22-1.28-1.89.07-3.78.02-5.67.02q-2.65,0-2.26,2.53l-.09.08c-.29-.55-.58-1.09-.87-1.64-.11-.43-.22-.86-.33-1.29,0,0,.02-.01.02-.01,3.69,0,7.37,0,11.06.01,0,0,.01,0,.01,0,.01.11.02.21.04.32Z"/>
  <path class="cls-3" d="m14.91,122.93c1.43,1.4,1.36,3.33,1.56,5.07.24,2.06.06,4.16.06,6.31-.14-.12-.24-.16-.26-.23-.05-.15-.05-.31-.07-.47.23-3.64-.19-7.2-1.28-10.68Z"/>
  <path class="cls-3" d="m22.82,135.9c-.42-3.39-.56-6.77.34-10.12.07-.26.11-.51.36-.66-.05,2.57-.85,5.06-.68,7.67.08,1.23.62,2.42.33,3.68-.3-.08-.33-.33-.35-.58Z"/>
  <path class="cls-9" d="m7.68,193.95c-.02.59.12,1,.85.98,2.9-.05,5.8-.08,8.7-.11,0,0,.03.04.02.04-.03.14-.06.28-.09.42-3.38.13-6.77-.15-10.15.16,0-.19,0-.37,0-.56.19-.33.23-.78.67-.93Z"/>
  <path class="cls-9" d="m17.8,171.23c-3.69,0-7.37,0-11.06-.01,1.24-.57,2.55-.26,3.81-.23,2.41.06,4.85-.36,7.25.24Z"/>
  <path class="cls-6" d="m8.34,191.77c.09.09.18.18.27.27-.29.65-.3,1.44-.94,1.94-.04-.81.23-1.53.67-2.2Z"/>
  <path class="cls-3" d="m74.69,141.17c0-.41-.02-.81-.03-1.22.29.4,1.19.78.03,1.22Z"/>
  <path class="cls-9" d="m6.72,171.23c.11.43.22.86.33,1.29-.53-.32-.93-.68-.33-1.29Z"/>
  <path class="cls-6" d="m95.81,190.18c-.7-.29-.19-.86-.31-1.29.52.33.22.86.31,1.29Z"/>
  <path class="cls-6" d="m101.17,190.18c-.66-.3-.15-.87-.3-1.29.51.34.22.86.3,1.29Z"/>
  <path class="cls-9" d="m17.16,195.28c.03-.14.06-.28.09-.42.26.07.52.19.36.5-.11.21-.33.14-.46-.08Z"/>
  <path class="cls-6" d="m8.26,175.08c-.34-.23-.23-.62-.34-.93,0,0,.09-.08.09-.08.39.22.32.6.32.95l-.07.06Z"/>
  <path class="cls-6" d="m8.56,176.04c-.34-.25-.22-.63-.3-.96,0,0,.07-.06.07-.06.4.22.31.6.31.95l-.08.07Z"/>
  <path class="cls-4" d="m14.28,121.03c.44.21.36.6.34.96-.36-.24-.54-.53-.34-.96Z"/>
  <path class="cls-4" d="m27.31,121.34c.38.35.38.66-.09.93-.28-.34.09-.62.09-.93Z"/>
  <path class="cls-4" d="m14.69,122.2c.33.17.27.46.25.75-.31-.17-.24-.47-.25-.75Z"/>
  <path class="cls-9" d="m7.01,194.88c0,.19,0,.37,0,.56-.53-.18-.21-.37,0-.56Z"/>
  <path class="cls-6" d="m97,195.35c.12-.04.24-.08.36-.12-.04.28-.17.29-.36.12Z"/>
  <path class="cls-9" d="m17.84,171.55c-.01-.11-.02-.21-.04-.32.25.08.22.19.04.32Z"/>
  <path class="cls-9" d="m22.23,175.36c-.26-1.54.42-1.98,1.93-1.97,15.69.05,31.37.03,47.06.03,2.16,0,2.16,0,1.22,1.92-16.74,0-33.47.01-50.21.02Z"/>
  <path class="cls-6" d="m21.34,187.74h49.82c0,.05,0,.1,0,.15H21.34c0-.05,0-.1,0-.15Z"/>
  <path class="cls-6" d="m22.23,175.36c16.74,0,33.47-.01,50.21-.02-.08.59-.55.3-.81.3-16.02.02-32.05.02-48.07,0-.46,0-.96.13-1.33-.29Z"/>
  <path class="cls-6" d="m72.33,173.08H23.58c0-.05,0-.11,0-.16h48.81c-.02.05-.04.11-.07.16Z"/>
  <path class="cls-10" d="m29.48,124.17c-.27-1.58.49-1.95,1.96-1.95,13.54.04,27.07.02,40.61.04.5,0,1.26-.26,1.44.25.22.62-.06,1.33-.76,1.7-14.41-.01-28.83-.02-43.24-.04Z"/>
  <path class="cls-10" d="m80.67,124.16c-1.33-1.18.02-1.55.64-2.15,1.98,0,3.95,0,5.93,0,.69.97-.45,1.42-.61,2.15-1.99,0-3.97,0-5.96,0Z"/>
  <path class="cls-3" d="m71.8,135.29c-10.33-.01-20.66-.03-30.99-.04-4.41,0-8.81,0-13.22.02.44-.57,1.07-.34,1.61-.34,13.67-.01,27.34-.01,41,0,.54,0,1.18-.24,1.6.36Z"/>
  <path class="cls-2" d="m30.22,121.74h43.12c0,.05,0,.1,0,.15H30.17c.02-.05.03-.1.05-.15Z"/>
  <path class="cls-3" d="m29.48,124.17c14.41.01,28.83.02,43.24.04-.48.49-1.09.28-1.64.28-13.33.01-26.65.01-39.98,0-.55,0-1.17.23-1.62-.32Z"/>
  <path class="cls-3" d="m86.7,135.49c-1.85-.56-3.74-.12-5.61-.23-1.1-.07-2.21,0-3.32,0,.62-.61,1.4-.31,2.1-.33,2-.04,4-.03,5.99,0,.31,0,1.05-.35.84.55Z"/>
  <path class="cls-3" d="m80.67,124.16c1.99,0,3.97,0,5.96,0-.27.64-.83.3-1.23.31-1.65.04-3.3.01-4.95,0-.03,0-.06-.06-.09-.1.1-.08.21-.15.31-.23Z"/>
  <path class="cls-3" d="m87.24,122.01c-1.98,0-3.95,0-5.93,0,0-.09-.02-.18-.02-.27,1.99-.15,3.98-.15,5.97,0,.02,0,.05.08.04.12,0,.05-.04.09-.06.14Z"/>
  <path class="cls-5" d="m21.27,193.35s.08.04.12.06c-.04-.02-.07-.05-.11-.07,0,0-.01.01-.01.01Z"/>
  <path class="cls-9" d="m80.33,175.31c-.1-1.39.47-1.95,1.93-1.91,3.67.09,7.35.07,11.02,0,1.34-.02,1.92.3,1.31,1.68-.23.26-.55.29-.87.29-4.47-.02-8.93-.04-13.4-.06Z"/>
  <path class="cls-6" d="m80.33,175.31c4.47.02,8.93.04,13.4.06.32,0,.63-.03.87-.29.31.45,0,.56-.35.56-4.47,0-8.94,0-13.41-.03-.17,0-.34-.2-.51-.31Z"/>
  <path class="cls-6" d="m93.56,187.9h-14.13s0-.1,0-.15h14.13s0,.1,0,.15Z"/>
  <path class="cls-6" d="m81.61,172.9h12.53s0,.08,0,.12h-12.53s0-.08,0-.12Z"/>
  <path class="cls-3" d="m21.58,124.48c-.64,3.01.04,6.11-.57,9.13,0-2.47-.02-4.94,0-7.41,0-.63.01-1.27.58-1.72Z"/>
  <path class="cls-4" d="m22.26,122.95c.33.23.24.43-.06.6.02-.2.04-.4.06-.6Z"/>
  <path class="cls-4" d="m22.21,123.53c0,.27-.05.52-.33.65.03-.26.02-.53.33-.65Z"/>
  <path class="cls-4" d="m21.9,124.16c-.11.11-.22.22-.33.33.11-.11.22-.22.33-.33Z"/>
  <path class="cls-6" d="m8.64,175.97c0-.35.08-.73-.31-.95,0-.35.08-.73-.32-.95q-.39-2.53,2.26-2.53c1.89,0,3.79.05,5.67-.02,1.01-.04,1.33.36,1.22,1.28-1.34,1.86-1.49,4.1-1.83,6.23-.74,4.59-.41,9.15.9,13.63-.46.56-.93.94-1.31-.06-.33-.87-.78-1.75-.88-2.65-.12-1.09-.56-1.47-1.59-1.37-.46.05-.96.08-1.4-.02-.75-.18-.83.15-.88.78-.08.84-.33,1.66-.54,2.67-.55-.64-.27-1.18-.38-1.65-.1-1.47.35-2.88.5-4.33.35-3.19.07-6.34-.68-9.45-.06-.23-.29-.41-.44-.62Zm3.86-.62c.94-.1,2.14.37,2.13-1.18,0-1.18-.96-.71-1.52-.73-.92-.03-2.2-.38-2.2,1.18,0,1.27,1.13.44,1.59.73Z"/>
  <path class="cls-9" d="m12.5,175.36c-.47-.29-1.6.54-1.59-.73,0-1.56,1.28-1.21,2.2-1.18.56.02,1.51-.45,1.52.73.01,1.55-1.19,1.08-2.13,1.18Z"/>
  <path class="cls-1" d="m7.68,193.95s0,0,0,0c0,0,0,.01,0,.02v-.02Z"/>
  <path class="cls-1" d="m95.52,188.92s0-.01,0-.02c0,0-.01,0-.02-.01l.02.03Z"/>
  <path class="cls-1" d="m20.62,194.61s0,.02,0,.02c0,0,0,0,0,.01v-.03Z"/>
  <path class="cls-1" d="m14.28,121.03s0,0,0,0c0,0,.01,0,.02,0l-.02-.02Z"/>
  <path class="cls-1" d="m14.91,122.93s0,0,0,0c0,0,.01.01.02.02l-.02-.02Z"/>
  <path class="cls-1" d="m14.61,121.97s0,.01,0,.02c0,0,0,0,0,0v-.02Z"/>
  <polygon class="cls-1" points="23.51 125.14 23.51 125.14 23.51 125.13 23.51 125.14"/>
  <path class="cls-1" d="m99.3,122.31s0,0,0,0c0,0,0-.01,0-.02v.02Z"/>
  <polygon class="cls-1" points="74.67 139.97 74.67 139.96 74.66 139.95 74.67 139.97"/>
  <path class="cls-1" d="m100.89,188.92s0-.01,0-.02c0,0-.01,0-.02-.01l.02.04Z"/>
  <path class="cls-1" d="m152.02,126.18c-3.37-4.22-7.18-8.05-10.85-11.99-4.65-5-9.53-9.79-14.29-14.7-.68-.7-1.45-1.19-2.34-1.5-7.86-2.76-15.33-6.37-22.54-10.53-3.87-2.23-7.73-4.51-11.19-7.4.31-.13.56-.15.88.02,1.63.87,3.3,1.68,4.94,2.56,9.47,5.06,18.99,10.01,29.4,12.94,3.43.96,6.86,1.94,10.49,1.77.59-.03,1.35.18,1.6-.63.23-.72-.31-1.17-.76-1.61-1.31-1.27-2.77-2.35-4.15-3.52-4.9-4.17-10.37-7.57-15.43-11.53-3.73-2.91-7.68-5.54-11.17-8.76l-.41-.45c-.09-.08-.27-.2-.26-.22.12-.22.29-.12.45-.03.19.15.37.3.56.46,2.74,1.7,5.5,3.36,8.22,5.1,2.61,1.68,5.51,2.66,8.44,3.69-.52-.86-1.1-1.63-1.73-2.36-6.47-7.44-12.93-14.89-18.88-22.76-2.33-3.08-4.67-6.16-7.16-9.12-3.91-4.63-7.82-9.24-12.36-13.29-5.14-4.58-10.62-8.64-16.83-11.65-.68-.33-1.01-.79-1.15-1.53-.69-3.58-2.52-6.7-4.46-9.66-2.42-3.69-6.03-6.12-10.11-7.79-3.31-1.35-6.79-1.87-10.35-1.59-4.72.37-9.1,1.58-12.48,5.21-.73.79-1.7,1.34-2.78,1.37-1.63.05-3.19.44-4.78.66-5.38.74-10.31,2.65-14.65,5.88-1.49,1.11-2.86,2.49-3.79,4.18-.39.7-.52,1.36.62,1.32,4.81-.14,9.5.92,14.21,1.64,2.79.43,5.56.98,8.32,1.7,2.98.78,3.56,3.46,3.26,5.62-.55,3.88-1.91,7.57-2.26,11.51-.49,5.4-.17,10.63,1.84,15.69.84,2.11,1.81,4.19,3.58,5.99-.2-2.19-1.02-4.1-.77-6.37.67.55.72,1.05.86,1.53.6,2.09,1.39,4.14,2.45,6.02,5.29,9.4,12.59,16.76,22.38,21.51.68.33,1.13.83,1.53,1.48,1.81,2.97,3.72,5.88,5.98,8.53.27.31.61.5.24,1.03-3.38,4.88-6.89,9.65-11.23,13.74-1.87,1.76-4.1,2.71-6.79,2.66-2.56-.05-5.04-.73-7.62-.73-3.24,0-6.09,1.96-7.08,4.88-.37,1.09-.9,1.18-1.82,1.18-5.95-.02-11.89,0-17.84,0-1.94,0-3.4.86-3.77,2.65-.31,1.49.37,2.8,1.78,3.63.79.46,1.33,1.17,1.56,2.07.68,2.6,1.28,5.19.98,7.94-.26,2.4-.74,4.71-1.67,6.93-.43,1.01-1.01,1.58-2.22,1.44-1.09-.12-2.21-.09-3.31,0-1.56.13-2.31,1.28-2.57,2.62-.23,1.14-.05,2.49,1.17,2.97,1.39.55,1.4,1.48,1.25,2.6-.16,1.22-.46,2.44-.52,3.67-.23,4.67.22,9.24,2.09,13.58-.69.25-1.32-.03-1.94.29-.5.26-1.16.35-1.72.29-1.49-.17-2.62.61-2.89,2.14-.23,1.3.76,3.22,1.83,3.35,1.43.17,2.03,1.51,2.3,2.34,1.44,4.45,1.78,9.09.84,13.67-.42,2.05-.71,4.44-3.02,5.63-1.64.84-2.41,2.42-1.91,4,.51,1.61,1.76,1.9,3.35,1.9,42.68-.03,85.37-.02,128.05-.01,3.95,0,7.89,0,11.84-.02,1.54,0,2.54-1.06,2.64-2.68.1-1.6-.76-3-2.14-2.95-2.25.09-2.94-1.43-3.5-3.04-1.49-4.24-1.6-8.59-.57-12.93.66-2.74,1.27-5.56,4.78-6.4,1.14-.28,1.68-1.84,1.35-3.17-.31-1.27-1.14-2.1-2.6-2-.68.04-1.38-.06-2.05.02-.99.12-1.54-.27-1.89-1.19-1.82-4.8-2.53-9.69-1.42-14.77.43-1.96,1.04-3.67,3.29-4.38.62-.2,1.54-.92,1.6-2.05.11-1.92-1.25-3.49-3.19-3.5-1.11,0-2.23-.11-3.31.03-1.37.18-1.93-.48-2.33-1.64-1.13-3.26-1.02-6.62-.97-9.99.03-2.08.27-2.21,2.26-1.82,2.15.42,4.29,1.1,6.8.6-3.61-2.68-6.71-5.54-9.62-8.65-2.93-3.13-5.93-6.19-8.99-9.75.05.04.1.06.16.05-.06-.02-.11-.04-.17-.06-.07-.07-.12-.16-.19-.22-.1-.11-.21-.22-.31-.33-.09-.04-.16-.1-.2-.2-.13-.16-.53-.23-.36-.47.16-.24.42-.09.53.18l.33.3c.09.12.19.23.28.35.15.1.44.18.18.4-.04.03-.07.04-.1.05,1.17.44,1.2.46,1.78,1.02,5.31,5.02,10.67,9.99,16.85,13.93,2.66,1.7,5.21,3.85,8.71,3.57.61-.05,1.48.3,1.72-.36.21-.55-.31-1.2-.74-1.74ZM30.38,15.58c-.17.46-.64.21-.97.24-.16.02-.32.03-.48.04l-5.49-.23c-1.03-.09-2.06-.18-3.09-.19-3.62-.06-7.23-.04-10.87.03,2.19-.96,4.55-1.14,6.87-1.53.05,0,.11,0,.16,0,.18-.02.36-.04.56-.06.35-.03.67-.04.93-.05.39-.03.93-.05,1.53-.05,0,0,0,0,.01,0,.33-.02.72-.03,1.14-.03.31-.03.56-.04.71-.04.1,0,.21-.02.32-.02.25-.03.53-.04.83-.04.23,0,.45,0,.66.03.21-.02.43-.03.66-.03.17,0,.33,0,.48.01.16,0,.32-.01.48-.01.07,0,.13,0,.2,0,.07,0,.13,0,.2,0,.37,0,.72.02,1.02.07.22.02.45.05.69.09.09.02.18.03.26.05.33.01.69.06,1.07.14,1.09.23,1.95.68,2.06,1.04.09.15.13.33.05.54Zm8.15-2.26c-1.34,0-3.3-1.71-3.36-2.95-.07-1.39,1.56-3.05,2.98-3.05,1.63,0,2.73,1.26,2.72,3.1-.01,1.83-.87,2.89-2.34,2.9Zm84.85,76.7l-.15-.05c.06-.09.13-.18.19-.26-.01.1-.03.21-.04.31Zm.05-.36h0c-1.11.54-2.02-.27-2.85-.67-6.97-3.36-13.97-6.68-20.29-11.23-1.62-1.17-3.34-2.21-4.83-3.64.42-.27.75-.22,1.06-.02,8.71,5.63,18.07,10.14,26.91,15.55Zm-23.32-27.06c-3.4-5.59-7.84-9.98-11.8-14.76.47-.27.77.07,1.09.33,4.8,3.94,9.17,8.3,12.73,13.41.27.38.51.79.69,1.21.57,1.3.15,1.95-1.22,1.98-6.85.16-12.85-2.35-18.49-5.92-2.62-1.66-4.89-3.75-6.99-6.03-.31-.34-.52-.76-.78-1.14,7.44,5.29,15.18,9.72,24.76,10.9Zm-40.17-12.48c7.61,8.98,17.42,13.82,28.38,16.8-1.79.79-3.43.85-5.18.43-4.95-1.21-9.65-3.06-13.69-6.13-3.68-2.8-7.03-6.03-9.49-10.03-.16-.25-.13-.49-.01-1.06Zm-4.32,12.83c-4.75-3.81-8.94-8.15-11.05-14.07-1.84-5.18-1.86-10.16,1.65-14.74,1.77-2.3,5.6-4.36,9.03-3.94-3.06.94-5.57,2.48-7.1,5.14-1.98,3.44-2.38,7.1-1.15,10.96,1.22,3.8,3.1,7.16,5.81,10.09,5.15,5.57,11.33,9.7,18.01,13.23,3.5,1.85,7.19,3.21,10.71,4.95.17.09.42.05.39.49-.89.37-1.75-.12-2.57-.31-8.83-2.07-16.69-6.16-23.72-11.8Zm14.69,33.53c1.08-1.37,2.18-2.72,3-4.28.36-.69.36-1.21-.09-1.93-1.05-1.65-2.38-3.16-3.12-5.55,2.45,1.89,4.59,3.51,6.7,5.18,1.28,1.01,2.72,1.74,4.21,2.33.95.38,1.13.85.74,1.64-1.12,2.3-2.17,4.63-3.75,6.69-.73.95-.87,2.23-1.67,3.2-1.48,1.8-2.19,4.19-4.45,5.41-.95.52-1.75.87-2.89.85-2.76-.05-5.54-.35-8.3.25-.94.2-1.68,1.01-2.82.91,4.52-4.66,8.49-9.67,12.44-14.7Zm-6.11,17.03c-.74,2.42-3.97,2.89-6.42,2.11,2.04-1.23,4.21-1.64,6.42-2.11Zm-23.19.03c-1.59,1.21-2.94,2.83-5.55,2.63,1.7-1.65,3.53-2.36,5.55-2.63Zm-25.22,6.2c24.39,0,48.78,0,73.16,0,1.84,0,1.68-.05,1.14,1.63-1.3,4.03-2.38,8.11-1.6,12.43.12.66,0,1.36,0,2.04.21.63.42,1.26.63,1.89.14.93.44,1.8.99,2.58.38.55.35.95-.5.95-3.55-.02-7.1-.03-10.66,0-.98,0-1.23-.59-1.42-1.34-.57-1.74-1.17-3.48-1.27-5.33-.83-4.06.09-7.94,1.23-11.79.13-.45.22-.92.6-1.25v-.1c-1.54-.43-2.39.15-2.93,1.67-1.5,4.23-2.15,8.53-1.4,12.99.43,1.26.82,2.53.91,3.87.3.4,1.17.78.02,1.21-3.1.64-6.21-.05-9.34.16-3.34.22-6.73.11-10.09.11-4.15,0-8.31-.18-12.47-.19-3,0-6.01-.14-9,.05-1.62.1-3.18.16-4.8.02-1.3-.11-1.74-.67-2-1.72-.48-1.51-1.13-2.98-1.02-4.62-.89-2.68-.67-5.39-.12-8.08.32-1.58.29-3.29,1.4-4.64h-.03c-.28-.33.09-.61.09-.92-.04-.08-.06-.17-.05-.27-1.27-.74-2.07-.51-2.55,1-.33,1.04-.45,2.18-1.2,3.07-.05,2.57-.85,5.06-.68,7.67.08,1.23.62,2.42.33,3.68.05.09.1.18.14.28.61,1.38,1.72,3.14,1.17,4.19-.5.95-2.72.46-4.1.46-2.14-.01-4.32.03-6.55-.21.37-.75.73-1.48,1.09-2.21.42-1.8.85-3.59,1.27-5.39.23-3.64-.19-7.19-1.28-10.67-.37-.23-.3-.6-.3-.94-.35-.23-.53-.53-.33-.95-.55-.21-.6-.71-.75-1.3h2.26Zm70.86,27.48c-4.44-.05-4.74.11-5.59,4.7-.9,4.86-.47,9.59,1.79,14.07.11.22.39.46.12.67-.17.13-.5.15-.74.1-.94-.17-1.42-.93-1.76-1.67-2.79-6.13-2.55-12.25.12-18.36.34-.77.78-1.12,1.66-1.09,2.36.06,4.73.02,7.1.02.68,0,1.32-.05.91,1.01-2.58,6.66-2.45,13.29.45,19.99-.95.07-1.47-.34-1.89-1-1.45-2.31-2.32-4.82-2.46-7.54-.17-3.31-.05-6.61,1.16-9.76.35-.91.08-1.12-.87-1.13Zm-76.48-.49c.27-.7.64-1.11,1.49-1.1,2.89.05,5.79.03,8.68.01.68,0,.99.14.65.9-2.92,6.54-2.33,13.05.26,19.53.07.18.12.38.22.69-1.25,0-1.65-.8-2.05-1.52-1.39-2.45-2.12-5.06-2.31-7.92-.21-3.13.11-6.15,1.06-9.1.27-.84.02-1.02-.75-.99-1.05.03-2.12.12-3.15-.02-1.61-.22-2.33.43-2.78,1.95-1.69,5.67-1.81,11.23.83,16.67.14.29.64.59.11.9-.32.19-.72.04-1.03-.2-.87-.68-1.27-1.68-1.65-2.64-2.29-5.77-1.8-11.49.43-17.16Zm7.68,24.82c-.19.45-.38.9-.57,1.36-1.12,3.27-1.68,6.66-1.93,10.08-.21,2.9.44,5.78,1.07,8.62.08.35.07.72.1,1.08.1.76.75,1.33.72,2.14l.03.04c.26.07.52.19.36.5-.11.21-.33.14-.46-.08-3.38.13-6.77-.15-10.15.16-.53-.18-.21-.37,0-.56.19-.33.23-.77.66-.92-.03-.81.24-1.52.67-2.18,1.22-5.23,1.37-10.47.22-15.73-.34-.25-.22-.63-.3-.96-.34-.23-.23-.62-.34-.93-.29-.55-.58-1.09-.87-1.64-.53-.32-.93-.68-.33-1.29h.02c1.24-.58,2.55-.27,3.81-.24,2.41.06,4.85-.36,7.25.24h.01c.25.09.22.2.04.33Zm56.78,20.32c.06.25,0,.52-.01.78q.99,2.32-1.33,2.77c-.42.08-.82.2-1.17-.16-15.78.02-31.56.03-47.34.05-1,0-1.99.09-2.99.12-.58.02-1.22.07-1.17-.81-.56-.53-.65-1.28-.87-1.96-2.25-7.3-1.88-14.45,1.2-21.45.42-.47.98-.27,1.48-.27,16.11,0,32.22,0,48.33,0,.56,0,1.16-.18,1.67.23.58,0,1.15.02,1.73.03.52,0,1.04,0,1.58,0,.26,2.32-1.13,4.15-1.49,6.25-.85,4.85-.75,9.62.38,14.4Zm1.25-26.08c-1.33-2.3-2.27-4.76-2.46-7.4-.24-3.41-.08-6.81,1.14-10.07.11-.29.13-.61.23-1.07-8.56,0-16.92,0-25.28,0-7.21,0-14.41.03-21.62-.03-1.25,0-1.85.37-2.26,1.59-1.89,5.57-1.59,11.02.55,16.44.14.36.77.84.11,1.19-.52.28-1.01-.1-1.34-.56-1.75-2.47-2.45-5.32-2.71-8.26-.32-3.56.41-6.99,1.68-10.31.44-1.15,1.05-1.69,2.43-1.69,16.51.06,33.03.04,49.54.02,1.28,0,1.71.03,1.18,1.61-2.01,5.97-2.28,12,.11,17.98.18.46.93,1.09.27,1.47-.69.4-1.22-.26-1.59-.9Zm-5.61-15.47H26.25c0-.06,0-.12,0-.18h44.02c0,.06,0,.12,0,.18Zm25.26,38.57c.5.33.2.85.29,1.28.46.77.57,1.64.68,2.5.29.75.59,1.49.88,2.24.03.1.03.21-.01.31-.04.28-.17.29-.36.12-5.81,0-11.62-.21-17.42.12-.75.04-.84-.4-1.06-.86-.72-1.51-1-3.14-1.3-4.76-1.1-4.81-.71-9.58.37-14.34.34-1.49.5-3.03,1.46-4.3.29-.32.67-.24,1.03-.24,5.52,0,11.04,0,16.56.02.35,0,.75-.12,1,.27-1.09,3.59-1.93,7.22-2.43,10.94-.3,2.26.39,4.46.31,6.71Zm.13-23.62c.19.43.82.99.22,1.38-.66.42-1.01-.31-1.31-.77-3.34-5.07-3.59-10.53-2.02-16.21.31-1.11.77-2.17,1.16-3.26.2-.57.57-.87,1.17-.77,1.09-.06,1,.48.66,1.18-1.28,2.7-1.76,5.61-1.88,8.53-.14,3.42.57,6.76,2,9.92Zm-.74-44.15c-1.43,4.24-2.26,8.57-1.91,13.07.43,2.06.65,4.18,1.44,6.16.12.29.21.66-.25.74-.59.1-1.11.06-1.39-.65-.59-1.5-1.12-3.01-1.39-4.61-.73-4.22-.57-8.39.77-12.48.31-.93.66-1.86.82-2.82.17-1.03.85-.76,1.41-.68.83.12.71.63.49,1.28Zm2.78,19.08c-.09-.34-.35-.63-.54-.94-2.37-6.03-1.41-11.92.66-17.79.39-1.1,1.33-1.02,1.87-.67.66.42-.14,1-.38,1.5-.53,3.04-1.55,6-1.33,9.16.09,1.35.04,2.71.06,4.06.32,1.37.66,2.73.95,4.1.06.31.65.81-.16.96-.41.08-.92.37-1.12-.37Zm4.66,55.06c-.44.17-.72.07-.9-.26-.42-.77-.77-1.57-1.15-2.36-1.92-4.4-2.04-8.96-1.23-13.61.29-1.65.67-3.27,1.24-4.84.29-.81.6-1.84,1.66-1.33,1.01.49,0,1.23-.16,1.86l.02-.03c-.38,2.41-.72,4.82-1.17,7.22-.15.79-.34,1.67-.07,2.31.66,1.56.19,3.12.29,4.66.49.34.21.85.28,1.28.44,1.42.88,2.84,1.32,4.26.09.29.5.59-.14.84Zm33.33-19.27c-1.16,4.99-.96,10.03-.09,15.05,0,.05,0,.11.03.15.4.87,1.28,2.03.73,2.61-.49.51-1.89.17-2.88.17-8.47,0-16.95,0-25.42,0-1.6,0-2.72-1.44-2.45-3.02.1-.6.48-.45.81-.46,1.32-.02,2.63,0,3.95-.02,4.34-.09,8.69-.08,13.02-.37,1.66-.11,3.32-.16,5.11-.31-.4-.43-.8-.57-1.3-.59-2.08-.07-4.16-.11-6.25-.25-4.76-.3-9.54-.38-14.31-.32-2.19.03-1.29-1.66-1.58-2.5-.41-1.18.78-1.06,1.54-1.03,3.93.19,7.87-.03,11.76-.42,2.82-.28,5.72.31,8.47-.76-2.82.14-5.6-.3-8.39-.48-4.09-.27-8.18-.17-12.26-.26-.47-.01-1.1.08-.91-.66.22-.82-.6-1.98.72-2.44.33-.11.73-.02,1.1-.02,5.92-.11,11.85-.14,17.77-.39,1.49-.06,3-.19,4.51-.41-3.23-.65-6.5-.87-9.79-.81-4.35.08-8.68-.57-13.04-.31-.94.06-.98-.27-.76-1.1.62-2.35.57-2.35,2.92-2.35,8.63,0,17.26,0,25.89-.02.99,0,1.43-.07,1.11,1.31Zm-2.9-28.15c1.22,0,1.38.37,1.13,1.45-1.12,4.91-.89,9.82.28,14.69.21.89.48,1.78.75,2.75-10.3,0-20.5-.01-30.71.02-.88,0-1.38-.3-1.72-1.04-.3-.65-.61-1.29-.93-1.97,4.3-.49,8.5-.21,12.66-.5,4.48-.32,8.97,0,13.44-.55.24-.03.54.05.63-.46-.42-.3-.95-.17-1.43-.18-4.87-.15-9.74-.42-14.61-.39-3.34.02-6.66-.31-9.99-.25-1.02.02-2.06-1.58-1.72-2.53.16-.45.49-.3.77-.31,3.03-.11,6.05-.28,9.08-.28,2.71,0,5.4-.27,8.11-.66-1.38-.48-2.87-.49-4.27-.57-4.18-.26-8.37-.34-12.55-.35-1.24,0-1.27-.59-1.15-1.42.1-.72-.57-1.81,1.09-1.78,4.94.08,9.9.23,14.83-.06,3.88-.23,7.8.02,11.66-.6-1.75-.66-3.55-.48-5.34-.62-4.61-.37-9.23-.09-13.83-.36-2.46-.14-4.9-.22-7.36-.21-.97,0-1.17-.36-1.05-1.18.33-2.32.68-2.61,3.03-2.61,9.73,0,19.47.02,29.2-.03Zm-3.86-22.11c-.64,4.28-.3,8.54.39,12.78.13.79.5,1.54.79,2.41-8.27,0-16.42-.01-24.57.02-.67,0-.94-.31-1.12-.82-.25-.72-.48-1.46-.78-2.37,6.31-.02,12.51.18,18.71-.82-.34-.44-.91-.43-1.49-.45-5.35-.21-10.69-.51-16.04-.27-1.8.08-1.31-1.01-1.46-1.96-.22-1.41.68-1.21,1.52-1.19,5.09.12,10.17-.27,15.26-.38.88-.02,1.69-.47,2.6-.53-1.39-.13-2.79-.39-4.18-.37-4.72.06-9.42-.59-14.13-.32-1.01.06-1.12-.39-1.05-1.2.06-.71-.17-1.49,1.06-1.38,1.25.12,2.53.07,3.79.01,4.16-.19,8.32-.43,12.48-.65.12,0,.23-.13.42-.25-.17-.14-.27-.3-.37-.31-2.77-.13-5.54-.29-8.31-.34-2.61-.05-5.2-.52-7.83-.35-.4.03-1.09.24-.91-.6.14-.68-.13-1.61.87-1.87.4-.1.84-.03,1.26-.03,6.1,0,12.21-.02,18.31.03,1.4.01,2.78.42,4.19.28.8-.08.66.51.59.95Zm-1.45-3.16c.24.24.64.43.35,1.16-2.64-2.51-5.7-4.33-8.01-7.01-.46-.53-1-.46-1.57-.46-8.73,0-17.46-.02-26.19,0-.81,0-1.37-.07-1.59-1.01-1.01-4.22-5.53-5.89-9.92-3.78-.14.07-.25.2-.4.25-.55.2-1.06.8-1.68.13-.6-.65-.28-1.35.1-1.84,1.54-1.99,2.71-4.21,4.11-6.28,2.47-3.66,4.99-7.3,7.46-10.97.38-.56.74-.68,1.38-.53,2.8.68,5.62,1.29,8.43,1.95,1.1.26,1.67,1.24,2.38,1.99,4.23,4.5,8.45,9,12.64,13.54,4.06,4.4,8.28,8.63,12.52,12.86Z"/>
  <g>
    <path class="cls-7" d="m110.32,190.45c-1.32.03-2.63,0-3.95.02-.32,0-.7-.14-.81.46-.27,1.58.85,3.02,2.45,3.02,8.47,0,16.95,0,25.42,0,1,0,2.39.34,2.88-.17.55-.58-.33-1.74-.73-2.61-.02-.05-.02-.1-.03-.15-.87-5.02-1.07-10.07.09-15.05.32-1.38-.12-1.31-1.11-1.31-8.63.02-17.26.02-25.89.02-2.35,0-2.3,0-2.92,2.35-.22.83-.18,1.16.76,1.1,4.35-.27,8.68.38,13.04.31,3.28-.06,6.56.16,9.79.81-1.51.22-3.02.34-4.51.41-5.92.25-11.84.28-17.77.39-.37,0-.77-.09-1.1.02-1.32.46-.5,1.62-.72,2.44-.2.74.44.65.91.66,4.09.09,8.17,0,12.26.26,2.79.18,5.58.61,8.39.48-2.75,1.07-5.65.48-8.47.76-3.89.39-7.83.61-11.76.42-.75-.04-1.95-.15-1.54,1.03.29.84-.61,2.52,1.58,2.5,4.77-.06,9.55.02,14.31.32,2.08.13,4.17.18,6.25.25.5.02.9.15,1.3.59-1.78.15-3.45.2-5.11.31-4.33.29-8.68.28-13.02.37Z"/>
    <path class="cls-7" d="m103.6,137.73c.3.92.53,1.65.78,2.37.18.52.45.82,1.12.82,8.15-.03,16.31-.02,24.57-.02-.29-.87-.66-1.62-.79-2.41-.69-4.24-1.03-8.5-.39-12.78.07-.44.21-1.02-.59-.95-1.42.14-2.8-.27-4.19-.28-6.1-.05-12.21-.03-18.31-.03-.42,0-.86-.07-1.26.03-.99.26-.73,1.19-.87,1.87-.18.84.51.62.91.6,2.62-.17,5.21.3,7.83.35,2.77.05,5.54.21,8.31.34.11,0,.2.16.37.31-.19.12-.3.24-.42.25-4.16.23-8.32.46-12.48.65-1.26.06-2.53.1-3.79-.01-1.24-.11-1.01.66-1.07,1.38-.07.8.04,1.26,1.05,1.2,4.72-.28,9.42.38,14.13.32,1.39-.02,2.78.24,4.18.37-.91.07-1.72.51-2.6.53-5.09.11-10.16.5-15.26.38-.84-.02-1.74-.21-1.52,1.19.15.95-.35,2.03,1.46,1.96,5.35-.23,10.7.07,16.04.27.58.02,1.15.01,1.49.45-6.19,1-12.4.8-18.71.82Z"/>
    <path class="cls-7" d="m104.21,166.73c10.2-.04,20.41-.02,30.71-.02-.27-.98-.54-1.86-.75-2.75-1.17-4.88-1.4-9.78-.28-14.69.24-1.08.09-1.46-1.13-1.45-9.73.05-19.47.03-29.2.03-2.35,0-2.7.29-3.03,2.61-.12.82.08,1.18,1.05,1.18,2.45,0,4.9.07,7.36.21,4.6.27,9.22-.01,13.83.36,1.78.14,3.59-.04,5.34.62-3.86.63-7.78.37-11.66.6-4.93.3-9.89.15-14.83.06-1.66-.03-.98,1.07-1.09,1.78-.12.83-.09,1.42,1.15,1.42,4.19,0,8.38.09,12.55.35,1.4.09,2.89.1,4.27.57-2.71.38-5.39.66-8.11.66-3.03,0-6.05.17-9.08.28-.27,0-.61-.13-.77.31-.34.95.71,2.54,1.72,2.53,3.33-.05,6.65.27,9.99.25,4.87-.03,9.74.24,14.61.39.48.01,1-.12,1.43.18-.09.5-.39.43-.63.46-4.46.55-8.96.24-13.44.55-4.16.29-8.37.01-12.66.5.32.67.63,1.32.93,1.97.34.74.85,1.04,1.72,1.04Z"/>
  </g>
</svg>